<?xml version="1.0" encoding="UTF-8"?>
<svg id="Laag_1" data-name="Laag 1" xmlns="http://www.w3.org/2000/svg" viewBox="0 0 3458.27 6916.54">
  <defs>
    <style>
      .cls-1 {
        fill: #fffbf6;
      }
    </style>
  </defs>
  <path class="cls-1" d="M1698.88,3433.34v-14.17c0-2.35-1.9-4.25-4.25-4.25s-4.25,1.9-4.25,4.25v14.17c0,3.4-1.99,6.38-4.25,6.38,0,0,0,0,0,0s0,0,0,0c-2.26,0-4.25-2.98-4.25-6.38v-14.17c0-2.35-1.9-4.25-4.25-4.25s-4.25,1.9-4.25,4.25v14.17c0,6.46,3.56,11.96,8.5,14.01v49.77c0,2.35,1.9,4.25,4.25,4.25s4.25-1.9,4.25-4.25v-49.77c4.95-2.05,8.5-7.55,8.5-14.01Z"/>
  <path class="cls-1" d="M1713.76,3457.44c-2.26,0-4.25-2.98-4.25-6.38,0-2.35-1.9-4.25-4.25-4.25s-4.25,1.9-4.25,4.25c0,8.21,5.72,14.88,12.76,14.88s12.76-6.68,12.76-14.88-5.72-14.88-12.76-14.88c-2.26,0-4.25-2.98-4.25-6.38s1.99-6.38,4.25-6.38,4.25,2.98,4.25,6.38c0,2.35,1.9,4.25,4.25,4.25s4.25-1.9,4.25-4.25c0-8.21-5.72-14.88-12.76-14.88s-12.76,6.68-12.76,14.88,5.72,14.88,12.76,14.88c2.26,0,4.25,2.98,4.25,6.38s-1.99,6.38-4.25,6.38Z"/>
  <path class="cls-1" d="M1769.39,3414.92c-7.03,0-12.76,6.68-12.76,14.88v31.89c0,2.35,1.9,4.25,4.25,4.25s4.25-1.9,4.25-4.25v-11.69h8.5v47.13c0,2.35,1.9,4.25,4.25,4.25s4.25-1.9,4.25-4.25v-67.32c0-8.21-5.72-14.88-12.76-14.88ZM1765.14,3441.49v-11.69c0-3.4,1.99-6.38,4.25-6.38s4.25,2.98,4.25,6.38v11.69h-8.5Z"/>
  <path class="cls-1" d="M1701.36,3482.77c1.54,0,2.83,1.87,2.83,4.07,0,1.17.95,2.13,2.13,2.13s2.13-.95,2.13-2.13c0-4.59-3.18-8.33-7.09-8.33s-7.09,3.74-7.09,8.33v5.31c0,4.59,3.18,8.33,7.09,8.33,1.16,0,2.25-.33,3.22-.92.38.55,1.02.92,1.75.92,1.17,0,2.13-.95,2.13-2.13v-6.2c0-1.17-.95-2.13-2.13-2.13h-2.83c-1.17,0-2.13.95-2.13,2.13s.95,2.13,2.13,2.13h.27c-.51,1.16-1.4,1.95-2.39,1.95-1.54,0-2.83-1.87-2.83-4.07v-5.31c0-2.21,1.3-4.07,2.83-4.07Z"/>
  <path class="cls-1" d="M1716.25,3478.52c-3.52,0-6.38,3.34-6.38,7.44v12.4c0,1.17.95,2.13,2.13,2.13s2.13-.95,2.13-2.13v-4.96h4.25v4.96c0,1.17.95,2.13,2.13,2.13s2.13-.95,2.13-2.13v-12.4c0-4.1-2.86-7.44-6.38-7.44ZM1714.12,3489.15v-3.19c0-1.7.99-3.19,2.13-3.19s2.13,1.49,2.13,3.19v3.19h-4.25Z"/>
  <path class="cls-1" d="M1736.8,3478.52c-1.34,0-2.57.54-3.54,1.45-.97-.9-2.2-1.45-3.54-1.45-3.13,0-5.67,2.94-5.67,6.56v13.29c0,1.17.95,2.13,2.13,2.13s2.13-.95,2.13-2.13v-13.29c0-1.32.75-2.3,1.42-2.3s1.42.98,1.42,2.3v13.29c0,1.17.95,2.13,2.13,2.13s2.13-.95,2.13-2.13v-13.29c0-1.32.75-2.3,1.42-2.3s1.42.98,1.42,2.3v13.29c0,1.17.95,2.13,2.13,2.13s2.13-.95,2.13-2.13v-13.29c0-3.61-2.54-6.56-5.67-6.56Z"/>
  <path class="cls-1" d="M1750.26,3482.77h4.25c1.17,0,2.13-.95,2.13-2.13s-.95-2.13-2.13-2.13h-4.25c-3.52,0-6.38,3.34-6.38,7.44v7.09c0,4.1,2.86,7.44,6.38,7.44h4.25c1.17,0,2.13-.95,2.13-2.13s-.95-2.13-2.13-2.13h-4.25c-1.13,0-2.13-1.49-2.13-3.19v-1.42h3.54c1.17,0,2.13-.95,2.13-2.13s-.95-2.13-2.13-2.13h-3.54v-1.42c0-1.7.99-3.19,2.13-3.19Z"/>
  <path class="cls-1" d="M1763.73,3482.77c1.17,0,2.13,1.03,2.13,2.3,0,1.17.95,2.13,2.13,2.13s2.13-.95,2.13-2.13c0-3.61-2.86-6.56-6.38-6.56s-6.38,2.94-6.38,6.56,2.86,6.56,6.38,6.56c1.17,0,2.13,1.03,2.13,2.3s-.95,2.3-2.13,2.3-2.13-1.03-2.13-2.3c0-1.17-.95-2.13-2.13-2.13s-2.13.95-2.13,2.13c0,3.61,2.86,6.55,6.38,6.55s6.38-2.94,6.38-6.55-2.86-6.56-6.38-6.56c-1.17,0-2.13-1.03-2.13-2.3s.95-2.3,2.13-2.3Z"/>
  <path class="cls-1" d="M1733.25,3465.94c2.35,0,4.25-1.9,4.25-4.25v-13.98c.81-.2,1.6-.46,2.38-.76l6.05,15.82c.65,1.69,2.26,2.73,3.97,2.73.5,0,1.02-.09,1.52-.28,2.19-.84,3.29-3.3,2.45-5.49l-6.77-17.69c4.53-4.68,7.4-11.61,7.4-19.32v-3.54c0-2.35-1.9-4.25-4.25-4.25s-4.25,1.9-4.25,4.25v3.54c0,7.39-3.56,13.67-8.5,16.02v-19.56c0-2.35-1.9-4.25-4.25-4.25s-4.25,1.9-4.25,4.25v42.52c0,2.35,1.9,4.25,4.25,4.25Z"/>
  <path class="cls-1" d="M1767.99,3387.54h-79.38c-17.19,0-31.18,13.99-31.18,31.18v79.38c0,17.58,14.3,31.88,31.87,31.88h78.69c17.58,0,31.88-14.3,31.88-31.88v-78.69c0-17.58-14.3-31.87-31.88-31.87ZM1791.36,3498.11c0,12.89-10.48,23.37-23.37,23.37h-78.69c-12.89,0-23.37-10.48-23.37-23.37v-79.38c0-12.5,10.17-22.68,22.68-22.68h79.38c12.89,0,23.37,10.48,23.37,23.37v78.69Z"/>
</svg>